<svg xmlns="http://www.w3.org/2000/svg" xml:space="preserve" width="7.11111in" height="7.11111in" version="1.1" style="shape-rendering:geometricPrecision; text-rendering:geometricPrecision; image-rendering:optimizeQuality; fill-rule:evenodd; clip-rule:evenodd" viewBox="0 0 7111 7111" xmlns:xlink="http://www.w3.org/1999/xlink">
<defs>
<style type="text/css">
   
    .fil3 {fill:#00AB94}
    .fil1 {fill:#5EAC24}
    .fil2 {fill:#5FD3AE}
    .fil5 {fill:#FFAB00}
    .fil0 {fill:#FFB300}
    .fil4 {fill:#FFD300}
   
  </style>
</defs>
<g id="Layer_x0020_1">
<metadata id="CorelCorpID_0Corel-Layer"></metadata>
<g id="_551472256">
<path class="fil0" d="M3556 7114c-1962,0 -3559,-1597 -3559,-3558 0,-1962 1597,-3559 3559,-3559 1961,0 3558,1597 3558,3559 0,1961 -1597,3558 -3558,3558z" id="id_101" style="fill: rgb(155, 196, 102); --darkreader-inline-fill:#a1c86f;" data-darkreader-inline-fill=""></path>
<path class="fil1" d="M3419 0c45,-2 91,-3 137,-3 28,0 56,1 83,1 13,0 25,1 37,1 17,1 35,2 52,2 12,1 25,2 37,2 17,1 34,2 51,4 12,1 25,2 38,3 16,1 32,3 49,4 13,1 25,3 38,4 16,2 32,4 48,6 13,1 26,3 39,5 16,2 32,4 47,6 13,2 26,4 39,6 15,3 31,5 47,8 13,2 25,4 38,7 16,2 31,6 47,9 12,2 25,4 37,7 16,3 32,7 48,11 12,2 24,5 35,7 17,4 34,9 51,13 11,2 21,5 32,8 19,5 37,10 56,15 8,2 17,5 26,7 27,8 54,16 81,24l0 0 0 0c27,9 54,18 81,27 8,3 17,6 25,9 18,6 36,12 54,19 11,3 21,7 31,11 16,6 32,12 48,18 11,5 22,9 33,14 15,6 30,12 45,18 11,5 22,10 33,14 15,7 29,13 44,19 11,6 22,11 34,16 14,6 28,13 42,20 11,5 22,10 33,16 14,7 28,14 42,21 11,5 22,11 33,17 14,7 27,14 41,21 11,6 22,12 33,18 13,8 27,15 40,23 11,6 22,12 32,18 14,8 28,16 41,24 10,6 20,12 31,18 14,9 27,18 41,27 10,6 20,12 29,18 14,9 29,18 43,28 9,6 18,12 26,18 17,11 33,22 49,33 6,5 13,9 19,14 23,16 45,32 67,49 5,3 9,6 13,10 18,13 36,26 53,40 8,6 15,12 23,18 14,11 28,23 41,34 9,7 17,14 26,21 13,11 25,21 38,32 9,8 17,16 26,23 12,11 24,21 36,32 9,8 17,16 26,24 12,11 23,21 35,32 8,9 17,17 26,26 11,10 22,21 33,32 9,8 17,17 26,26 11,11 22,22 32,33 9,9 17,18 26,26 10,12 21,23 31,34 8,9 17,18 25,27 10,12 21,23 31,35 8,9 16,18 24,27 10,12 20,25 30,37 8,9 16,18 23,27 10,12 21,25 31,38 7,9 14,18 21,26 11,14 21,28 32,42 6,8 12,16 18,24 13,18 27,36 40,54 3,4 6,9 9,13 16,22 32,45 47,68 5,7 9,13 13,20 11,16 22,33 33,49 6,9 11,18 17,27 9,14 18,29 27,44 6,10 12,19 18,29 8,14 16,28 24,42 6,10 12,21 18,31 8,14 16,28 23,42 6,10 12,21 18,32 7,14 14,27 22,41 5,11 11,22 17,33 7,14 13,28 20,42 6,11 11,22 17,34 6,14 13,28 19,42 5,11 11,22 16,34 6,14 12,28 19,43 4,11 9,22 14,34 6,14 12,29 18,44 5,11 9,22 14,34 6,15 11,30 17,45 4,11 8,22 12,33 6,16 12,33 17,49 4,10 8,21 11,31 6,18 12,36 18,54 3,9 6,18 8,26 9,27 17,54 25,82 0,1 0,2 1,4 7,26 14,51 21,78 2,9 5,18 7,27 4,19 9,37 13,55 3,11 5,22 8,33 3,17 7,34 11,51 2,12 4,24 7,36 3,16 6,32 9,48 2,12 4,25 7,37 2,16 5,32 8,48 2,13 3,25 5,38 3,16 5,32 7,48 2,13 3,25 5,38 2,16 4,32 5,48 2,13 3,26 4,39 1,7 2,14 2,22l-1370 -7c-159,-1027 -1036,-1826 -2098,-1862l0 60c-6,53 -47,100 -106,100 -59,0 -106,-47 -106,-106l0 -1418z" id="id_102" style="fill: rgb(255, 127, 155);"></path>
<path class="fil2" d="M7099 3233l0 3 1 0 0 3 0 1 0 3 0 0 0 3 1 3 0 2 0 1c6,70 10,141 12,212l0 0c1,30 1,61 1,92 0,29 0,59 -1,89l0 6c-1,28 -2,56 -3,83l-1 9c-1,27 -3,54 -5,81l-1 9c-2,27 -4,54 -7,82l-1 6c-3,29 -6,57 -10,86l0 1c-3,29 -7,58 -12,87l-1 5c-4,27 -8,54 -13,81l-2 8c-4,26 -9,52 -15,78l-1 9c-6,26 -11,52 -17,78l-2 7c-6,27 -13,54 -20,81l0 2c-8,28 -15,56 -23,83l-1 4c-8,26 -15,52 -23,78l-3 8c-8,25 -16,49 -24,74l-3 9c-8,24 -17,49 -26,73l-3 8c-9,25 -18,50 -28,75l-2 4c-10,26 -21,52 -32,78l-1 3c-11,25 -22,50 -33,75l-3 6c-11,24 -21,47 -33,71l-4 8c-11,23 -22,46 -34,69l-4 7c-12,23 -24,47 -37,70l-2 5c-13,24 -27,49 -41,73l-1 1c-14,24 -28,47 -42,71l-3 6c-14,22 -27,44 -41,66l-5 7c-14,21 -28,42 -42,64l-5 6c-14,22 -29,43 -44,65l-4 5c-16,22 -32,45 -49,67l0 0 0 0c-17,22 -34,44 -51,66l-4 5c-16,20 -32,41 -48,61l-6 6c-16,20 -32,39 -49,58l-6 7c-2,3 -5,6 -8,9l-961 -962c301,-377 481,-854 481,-1372 0,-41 -1,-82 -3,-123l-100 0c-59,0 -106,-47 -106,-106 0,-59 47,-106 106,-106l1448 7z" id="id_103" style="fill: rgb(187, 144, 212);"></path>
<path class="fil3" d="M3556 7114c-46,0 -92,-1 -137,-3l0 -1424c0,-59 47,-106 106,-106 59,0 106,47 106,106l0 72c590,-20 1121,-273 1504,-670l524 528 -591 -595c-41,-41 -41,-106 0,-147 41,-42 106,-42 147,0l1019 1020c-51,59 -104,116 -160,171l-7 7c-17,18 -36,36 -54,53 -2,2 -4,4 -7,7 -18,17 -37,35 -55,52l-7 5c-19,18 -38,35 -57,51 -2,2 -5,4 -7,6 -19,17 -39,34 -59,50l-6 5c-20,17 -40,33 -61,49l-5 4c-21,17 -42,33 -63,48l-5 4c-21,16 -43,32 -64,47l-4 3c-23,16 -45,31 -67,47l-4 2c-22,15 -45,31 -69,45l-2 2c-23,15 -47,30 -71,45l-1 0c-25,15 -49,29 -74,44l0 0c-25,14 -50,28 -74,41l-2 1c-25,14 -49,27 -74,40l-3 1c-25,13 -49,25 -74,37l-4 2c-25,12 -49,23 -74,34l-5 3c-25,11 -49,21 -74,32l-6 2c-24,11 -49,21 -74,31l-7 2c-24,10 -49,19 -74,29l-7 2c-25,9 -50,18 -75,27l-8 2c-24,9 -49,17 -74,25l-9 2c-25,8 -50,15 -75,23l-9 2c-25,7 -50,14 -75,21l-10 2c-25,7 -50,13 -76,19l-10 2c-25,6 -50,11 -76,16l-10 3c-25,5 -51,10 -77,14l-10 2c-26,5 -51,9 -77,13l-11 2c-26,4 -52,7 -78,11l-10 1c-26,3 -52,6 -79,9l-10 1c-27,3 -53,5 -80,7l-10 1c-27,2 -53,4 -80,5l-10 1c-27,1 -54,2 -81,3l-10 0c-29,1 -58,1 -87,1z" id="id_104" style="fill: rgb(122, 220, 255);"></path>
<path class="fil4" d="M3556 5760c-1216,0 -2199,-989 -2199,-2199 0,-1215 989,-2198 2199,-2198 1209,0 2198,989 2198,2198 0,1210 -983,2199 -2198,2199z" id="id_105"></path>
<path class="fil5" d="M3596 4921c-162,0 -330,-29 -474,-93 -301,-133 -469,-370 -469,-671 0,-58 46,-104 104,-104 58,0 104,46 104,104 0,272 191,417 353,486 226,104 608,116 845,-40 133,-87 202,-208 202,-370 0,-301 -219,-481 -717,-579 -249,-46 -891,-185 -891,-775 0,-232 98,-417 295,-539 272,-173 717,-196 1036,-52 306,133 474,371 474,672 0,57 -46,104 -104,104 -58,0 -104,-47 -104,-104 0,-272 -191,-417 -353,-486 -226,-105 -608,-116 -845,40 -133,87 -202,208 -202,370 0,301 214,475 717,579 376,75 880,237 880,775 0,232 -99,417 -295,538 -139,99 -348,145 -556,145z" id="id_106" style="fill: rgb(117, 85, 92);"></path>
<path class="fil5" d="M3556 5222c-58,0 -105,-46 -105,-104l0 -295c0,-58 47,-104 105,-104 57,0 104,46 104,104l0 295c-6,58 -47,104 -104,104zm0 -2829c-58,0 -105,-47 -105,-105l0 -295c0,-58 47,-104 105,-104 57,0 104,46 104,104l0 295c-6,58 -47,105 -104,105z" id="id_107" style="fill: rgb(117, 85, 92);"></path>
</g>
</g>
</svg>